# xmcd
#
# Track frame offsets:
# 150
# 13185
# 31432
# 50222
# 68030
# 81240
# 95315
# 109467
# 125457
# 142472
# 161927
# 177085
# 192727
# 211987
# 228560
# 241042
# 255500
#
# Disc length: 3547 seconds
#
#
# Revision: 0
# Processed by: cddbd v1.5.2PL0 Copyright (c) Steve Scherf et al.
# Submitted via: FreeRIP 2.96 
#
DISCID=000dd911
DTITLE=Olivia Newton John - The Greatest Hits
DYEAR=1900
DGENRE=Vocal
TTITLE0=Let Me Be There
TTITLE1=Suddenly
TTITLE2=I Can't Help It
TTITLE3=Soul Kiss
TTITLE4=You're The One I Want
TTITLE5=Hopeless Devoted To You
TTITLE6=Heart Attack
TTITLE7=I Honestly Love You
TTITLE8=Physical
TTITLE9=Magic
TTITLE10=Have You Ever Been Mellow
TTITLE11=Please Mr Please
TTITLE12=Whenever You're Away From Home
TTITLE13=Summer Night
TTITLE14=Long Live Love
TTITLE15=If You Love Me Let Me Know
TTITLE16=We Go Together
EXTD=
EXTT0=
EXTT1=
EXTT2=
EXTT3=
EXTT4=
EXTT5=
EXTT6=
EXTT7=
EXTT8=
EXTT9=
EXTT10=
EXTT11=
EXTT12=
EXTT13=
EXTT14=
EXTT15=
EXTT16=
PLAYORDER=
